<svg viewBox="0 0 800 500" xmlns="http://www.w3.org/2000/svg" role="img" aria-label="Latvia map with cities">
  <rect x="0" y="0" width="800" height="500" fill="#eef2f5"/>
  <path d="M100,350 C120,200 250,100 420,120 C620,140 700,260 680,360 C600,460 300,480 150,430 Z" fill="#cfd8e3"/>
  <g fill="#111" font-family="sans-serif" font-size="12">
    <circle cx="420" cy="220" r="6" fill="#333" data-city="Rīga" id="city-riga"/>
    <text x="430" y="215">Rīga</text>
    <circle cx="460" cy="180" r="5" fill="#333" data-city="Sigulda" id="city-sigulda"/>
    <text x="470" y="175">Sigulda</text>
    <circle cx="500" cy="170" r="5" fill="#333" data-city="Cēsis" id="city-cesis"/>
    <text x="510" y="165">Cēsis</text>
    <circle cx="520" cy="160" r="5" fill="#333" data-city="Valmiera" id="city-valmiera"/>
    <text x="530" y="155">Valmiera</text>
    <circle cx="120" cy="250" r="5" fill="#333" data-city="Ventspils" id="city-ventspils"/>
    <text x="130" y="245">Ventspils</text>
    <circle cx="160" cy="320" r="5" fill="#333" data-city="Liepāja" id="city-liepaja"/>
    <text x="170" y="315">Liepāja</text>
    <circle cx="380" cy="260" r="5" fill="#333" data-city="Jūrmala" id="city-jurmala"/>
    <text x="390" y="255">Jūrmala</text>
    <circle cx="470" cy="230" r="5" fill="#333" data-city="Ogre" id="city-ogre"/>
    <text x="480" y="225">Ogre</text>
    <circle cx="400" cy="300" r="5" fill="#333" data-city="Jelgava" id="city-jelgava"/>
    <text x="410" y="295">Jelgava</text>
    <circle cx="650" cy="320" r="5" fill="#333" data-city="Daugavpils" id="city-daugavpils"/>
    <text x="660" y="315">Daugavpils</text>
  </g>
</svg>
